<svg xmlns="http://www.w3.org/2000/svg" version="1.1" xmlns:xlink="http://www.w3.org/1999/xlink" xmlns:svgjs="http://svgjs.dev/svgjs" width="1440" height="560" preserveAspectRatio="none" viewBox="0 0 1440 560"><g mask="url(&quot;#SvgjsMask1004&quot;)" fill="none"><path d="M960.942,335.447C992.483,336.345,1020.841,317.564,1036.918,290.413C1053.325,262.704,1057.874,227.75,1040.928,200.368C1024.68,174.114,991.808,166.914,960.942,167.648C931.601,168.346,902.013,178.636,887.284,204.022C872.509,229.488,877.711,260.608,892.105,286.291C906.88,312.653,930.734,334.587,960.942,335.447" fill="rgba(150, 60, 255, 1)" class="triangle-float2"></path><path d="M17.597,87.628C44.097,88.589,65.054,67.413,77.735,44.125C89.8,21.968,92.833,-4.909,79.722,-26.464C67.049,-47.3,41.978,-54.215,17.597,-54.746C-8.004,-55.304,-36.896,-51.623,-49.401,-29.277C-61.734,-7.237,-47.994,18.11,-35.436,40.023C-22.776,62.113,-7.847,86.706,17.597,87.628" fill="rgba(150, 60, 255, 1)" class="triangle-float2"></path><path d="M1386.387,494.829C1402.131,494.013,1414.866,483.004,1422.201,469.049C1429.004,456.107,1429.21,440.521,1421.447,428.131C1414.117,416.434,1400.183,412.366,1386.387,411.893C1371.467,411.382,1355.467,413.347,1346.904,425.576C1337.134,439.528,1335.071,458.333,1343.507,473.129C1352.011,488.045,1369.24,495.718,1386.387,494.829" fill="rgba(150, 60, 255, 1)" class="triangle-float2"></path><path d="M96.102,298.719C123.373,297.908,152.152,292.003,166.313,268.683C180.917,244.635,175.341,214.867,162.095,190.045C147.865,163.378,126.263,139.092,96.102,137.107C62.764,134.913,29.728,151.248,13.13,180.243C-3.374,209.074,-0.795,245.875,18.262,273.087C35.057,297.069,66.837,299.59,96.102,298.719" fill="rgba(150, 60, 255, 1)" class="triangle-float3"></path><path d="M1209.461,383.024C1244.292,385.405,1279.601,370.142,1297.192,339.986C1314.901,309.629,1308.756,272.578,1291.868,241.757C1274.176,209.468,1246.273,179.216,1209.461,179.877C1173.405,180.525,1147.178,211.904,1132.028,244.629C1119.265,272.199,1125.472,302.749,1140.306,329.262C1155.587,356.573,1178.239,380.89,1209.461,383.024" fill="rgba(150, 60, 255, 1)" class="triangle-float3"></path><path d="M613.38,666.315C668.799,666.449,726.037,650.854,755.358,603.827C786.211,554.343,784.921,490.115,754.106,440.608C724.85,393.606,668.729,374.474,613.38,375.727C560.438,376.925,511.147,401.712,483.272,446.738C453.79,494.359,444.038,554.958,472.589,603.142C500.693,650.572,558.249,666.181,613.38,666.315" fill="rgba(150, 60, 255, 1)" class="triangle-float1"></path><path d="M809.302,196.91C824.932,196.293,836.075,182.841,842.803,168.72C848.558,156.642,847.378,142.843,840.545,131.341C833.872,120.108,822.35,113.012,809.302,112.329C794.845,111.572,779.705,115.596,771.827,127.742C763.306,140.879,763.424,157.793,770.883,171.56C778.717,186.019,792.87,197.559,809.302,196.91" fill="rgba(150, 60, 255, 1)" class="triangle-float1"></path><path d="M1440.233,592.624C1477.803,591.259,1504.115,560.543,1523.57,528.373C1543.985,494.615,1562.436,455.187,1544.641,419.978C1525.51,382.126,1482.64,364.14,1440.233,363.486C1396.541,362.812,1351.2,378.407,1330.092,416.668C1309.522,453.954,1323.107,498.74,1345.701,534.836C1366.703,568.388,1400.676,594.061,1440.233,592.624" fill="rgba(150, 60, 255, 1)" class="triangle-float2"></path><path d="M98.729,700.726C143.855,700.39,178.071,664.36,199.6,624.7C219.992,587.134,224.381,543.213,204.882,505.175C183.486,463.436,145.633,427.752,98.729,427.922C52.044,428.091,15.501,464.552,-6.101,505.938C-25.987,544.036,-25.145,588.377,-4.778,626.221C16.814,666.343,53.167,701.065,98.729,700.726" fill="rgba(150, 60, 255, 1)" class="triangle-float1"></path><path d="M1413.467,353.336C1455.631,353.738,1497.294,335.962,1518.51,299.522C1539.847,262.875,1535.769,217.221,1513.854,180.917C1492.684,145.846,1454.419,126.552,1413.467,125.51C1370.418,124.414,1325.721,138.494,1303.819,175.571C1281.606,213.174,1288.909,260.38,1311.837,297.552C1333.581,332.804,1372.05,352.941,1413.467,353.336" fill="rgba(150, 60, 255, 1)" class="triangle-float1"></path><path d="M841.06,69.753C856.986,70.194,874.04,66.528,882.366,52.945C890.992,38.873,889.141,20.32,879.635,6.826C871.291,-5.018,855.547,-5.534,841.06,-5.688C826.167,-5.846,809.287,-6.41,801.042,5.993C792.173,19.334,795.016,37.195,803.532,50.764C811.52,63.491,826.04,69.337,841.06,69.753" fill="rgba(150, 60, 255, 1)" class="triangle-float3"></path><path d="M1496.491,617.758C1556.57,617.105,1596.337,562.522,1625.685,510.094C1654.138,459.264,1673.604,400.413,1647.228,348.475C1618.594,292.091,1559.649,252.5,1496.491,255.689C1437.425,258.672,1397.345,310.034,1370.001,362.474C1345.112,410.206,1338.441,464.72,1362.341,512.955C1389.343,567.451,1435.676,618.419,1496.491,617.758" fill="rgba(150, 60, 255, 1)" class="triangle-float1"></path><path d="M50.154,688.29C88.975,686.687,118.627,658.009,138.194,624.442C157.939,590.57,168.926,550.263,150.911,515.44C131.561,478.036,92.262,454.903,50.154,454.263C6.92,453.606,-34.618,474.741,-56.052,512.294C-77.316,549.549,-73.611,595.545,-51.448,632.272C-30.032,667.761,8.739,690,50.154,688.29" fill="rgba(150, 60, 255, 1)" class="triangle-float3"></path></g><defs><mask id="SvgjsMask1004"><rect width="1440" height="560" fill="#ffffff"></rect></mask><style>
                @keyframes float1 {
                    0%{transform: translate(0, 0)}
                    50%{transform: translate(-10px, 0)}
                    100%{transform: translate(0, 0)}
                }

                .triangle-float1 {
                    animation: float1 5s infinite;
                }

                @keyframes float2 {
                    0%{transform: translate(0, 0)}
                    50%{transform: translate(-5px, -5px)}
                    100%{transform: translate(0, 0)}
                }

                .triangle-float2 {
                    animation: float2 4s infinite;
                }

                @keyframes float3 {
                    0%{transform: translate(0, 0)}
                    50%{transform: translate(0, -10px)}
                    100%{transform: translate(0, 0)}
                }

                .triangle-float3 {
                    animation: float3 6s infinite;
                }
            </style></defs></svg>